PathFileType	4	(X/Y/Z)	C:/Users/opensim2020/Desktop/walking_exp_matlab/subject06_walking18_straight_03_cyclic.trc	
DataRate	CameraRate	NumFrames	NumMarkers	Units	OrigDataRate	OrigDataStartFrame	OrigNumFrames	
100.00	100.00	4	47	mm	100.00	3398	148	
Frame#	Time	LFHD			RFHD			LBHD			RBHD			C7			T10			CLAV			STRN			RBAK			LSHO			LUPA			LELB			LFRM			LWRA			LWRB			LFIN			RSHO			RUPA			RELB			RFRM			RWRA			RWRB			RFIN			LASI			RASI			LPSI			RPSI			LTHI			LKNE			LTIB			LANK			LHEE			LTOE			RTHI			RKNE			RTIB			RANK			RHEE			RTOE			*39			*40			*41			*42			*43			*44			*45			*46			
		X1	Y1	Z1	X2	Y2	Z2	X3	Y3	Z3	X4	Y4	Z4	X5	Y5	Z5	X6	Y6	Z6	X7	Y7	Z7	X8	Y8	Z8	X9	Y9	Z9	X10	Y10	Z10	X11	Y11	Z11	X12	Y12	Z12	X13	Y13	Z13	X14	Y14	Z14	X15	Y15	Z15	X16	Y16	Z16	X17	Y17	Z17	X18	Y18	Z18	X19	Y19	Z19	X20	Y20	Z20	X21	Y21	Z21	X22	Y22	Z22	X23	Y23	Z23	X24	Y24	Z24	X25	Y25	Z25	X26	Y26	Z26	X27	Y27	Z27	X28	Y28	Z28	X29	Y29	Z29	X30	Y30	Z30	X31	Y31	Z31	X32	Y32	Z32	X33	Y33	Z33	X34	Y34	Z34	X35	Y35	Z35	X36	Y36	Z36	X37	Y37	Z37	X38	Y38	Z38	X39	Y39	Z39	X40	Y40	Z40	X41	Y41	Z41	X42	Y42	Z42	X43	Y43	Z43	X44	Y44	Z44	X45	Y45	Z45	X46	Y46	Z46	X47	Y47	Z47	

38	0.370	1413.60376	-229.69838	1673.55725	1544.48010	-225.62131	1659.29346	1415.88379	-361.59979	1616.32507	1545.07581	-356.06558	1607.36023	1469.50415	-358.24353	1459.90356	1476.25330	-400.75549	1132.47241	1466.12549	-248.49049	1382.19421	1458.69617	-212.15073	1207.42871	1552.08826	-430.11148	1291.22339	1305.51575	-308.04242	1416.20361	1229.51672	-336.58307	1217.92468	1216.14722	-354.52887	1107.63062	1187.37292	-346.30173	958.50610	1220.15881	-294.70007	837.25146	1186.47437	-357.53802	839.67853	1179.55432	-324.23624	755.22253	1627.62988	-287.20590	1412.86377	1717.72009	-313.57132	1213.51550	1727.51282	-296.82272	1092.24780	1738.31909	-263.93829	976.33838	1694.44580	-186.53033	850.15155	1739.34058	-235.00902	841.98883	1735.49243	-185.91743	773.55615	1361.24963	-225.33635	976.73779	1581.87231	-224.46162	972.66736	1388.82214	-385.67429	999.49829	1557.32288	-376.29562	1000.24310	1288.47620	-244.56912	663.41693	1311.22449	-198.66498	506.34399	1311.77515	-212.27576	252.41644	1344.72046	-193.95493	79.12343	1393.55042	-228.32259	59.16358	1339.32959	-49.50630	61.41277	1621.96631	-298.24304	636.25262	1597.60132	-307.22052	510.68106	1589.62415	-393.84293	256.05246	1538.91785	-439.01501	75.12231	1494.88904	-482.71164	53.48602	1537.65613	-287.93228	37.00074	1476.78638	-328.97739	1708.26184																					 
39	0.380	1412.72937	-223.64455	1672.83130	1543.69177	-219.32834	1658.70569	1415.12073	-355.62085	1615.73450	1544.31641	-350.00443	1606.90808	1469.02869	-352.42813	1459.22229	1476.26440	-394.62286	1131.83411	1465.50854	-242.51328	1381.52332	1458.21289	-206.09174	1206.74634	1551.91370	-423.99045	1290.52881	1304.92859	-302.21555	1415.47656	1229.29297	-331.59381	1217.36609	1216.23950	-350.11819	1107.05627	1187.82288	-342.48206	957.78217	1221.21118	-291.36160	836.29590	1187.07898	-354.11850	839.02930	1180.81226	-321.35327	754.26965	1627.05029	-281.05005	1412.43262	1717.30164	-307.28726	1213.14172	1727.01807	-290.53333	1091.89734	1737.80481	-256.78513	976.16144	1693.76514	-178.80576	850.44489	1738.74170	-227.15884	841.97693	1734.67773	-177.72746	773.75800	1361.19995	-219.46315	975.94366	1581.75623	-218.55440	971.88367	1388.87695	-379.72330	998.80005	1557.42810	-370.40448	999.67993	1288.12830	-238.80000	663.03943	1311.11829	-191.68623	506.50101	1311.45313	-198.30119	252.26448	1344.29395	-174.57811	79.42090	1392.89172	-208.76535	58.67540	1340.31873	-29.38803	64.71270	1621.63086	-293.41254	635.46283	1597.41760	-303.04163	509.90039	1589.52893	-391.30841	255.70695	1539.03076	-438.63419	75.30436	1495.14490	-482.60007	53.91773	1537.52051	-287.69785	36.95836	1475.87561	-322.87723	1707.69641																					 
40	0.390	1411.79260	-217.56570	1672.11670	1542.78235	-213.18121	1658.13318	1414.37939	-349.66470	1615.10999	1543.55188	-343.88669	1606.40625	1468.37744	-346.22849	1458.49304	1476.18384	-388.58905	1131.14453	1464.87659	-236.51875	1380.79871	1457.70496	-199.99959	1205.98914	1551.61768	-417.74982	1289.77686	1304.32727	-296.28317	1414.67517	1229.09216	-326.42575	1216.61182	1216.25146	-345.46869	1106.37170	1188.17993	-338.48291	956.94330	1222.21912	-287.76172	835.37677	1187.82214	-350.63358	838.23627	1182.25427	-317.97589	753.21857	1626.39307	-274.85416	1411.94348	1716.88196	-300.93460	1212.72327	1726.72192	-283.81274	1091.50659	1737.30396	-249.74611	975.94769	1693.17676	-171.18436	850.68719	1738.14465	-219.41492	841.96844	1734.03931	-169.61708	773.97913	1361.17920	-213.40723	975.14368	1581.65698	-212.67938	971.04523	1388.94739	-373.63062	998.09436	1557.34460	-364.43832	998.97253	1287.57935	-232.79060	662.54425	1310.93384	-184.71158	506.57529	1311.12122	-184.55310	252.23364	1343.90942	-155.69312	79.93409	1392.27869	-189.58379	58.47756	1341.20386	-9.84146	68.04449	1621.10095	-288.75992	634.61023	1597.22192	-298.85141	509.06180	1589.32642	-389.12143	255.54602	1539.10107	-438.08954	75.45853	1495.31934	-482.62854	54.54851	1537.47437	-288.11133	37.00583	1475.00586	-316.74243	1707.07056																					 
41	0.400	1410.80237	-211.55666	1671.36145	1541.81018	-207.05865	1657.53369	1413.48340	-343.51712	1614.33643	1542.70435	-337.75470	1605.81067	1467.63232	-339.99060	1457.73120	1475.98816	-382.36432	1130.40515	1464.20386	-230.32918	1380.15649	1457.21484	-193.89380	1205.19702	1551.20020	-411.53012	1289.18286	1303.66833	-290.21799	1413.79443	1228.80322	-321.08231	1215.75793	1216.33936	-340.73071	1105.54980	1188.63257	-334.23511	956.01831	1223.15259	-284.03378	834.41833	1188.62097	-346.76285	837.44519	1183.38037	-314.52301	752.17584	1625.71252	-268.59729	1411.40308	1716.38953	-294.55331	1212.25012	1726.24268	-277.27869	1091.07458	1736.76746	-242.76492	975.62604	1692.40430	-163.66028	850.78766	1737.39282	-211.87677	841.80627	1733.16370	-161.81799	774.03070	1361.20947	-207.25020	974.29510	1581.57043	-206.80196	970.18054	1388.79944	-367.61743	997.39966	1557.24792	-358.53824	998.30603	1286.98682	-226.57721	662.08282	1310.79993	-177.64250	506.53470	1310.82703	-170.93695	252.23430	1343.66418	-137.59055	80.62220	1391.90405	-171.16881	58.50987	1341.89612	8.66586	71.56507	1621.62756	-284.69238	633.85950	1596.96570	-294.66968	508.28604	1589.19055	-387.01389	255.45345	1539.16882	-437.74368	75.81940	1495.51831	-482.47125	55.12810	1537.33191	-288.00549	37.01635	1473.99658	-310.63156	1706.42468																					 
